<?xml version="1.0" standalone="no"?>
<!DOCTYPE svg PUBLIC "-//W3C//DTD SVG 20010904//EN"
 "http://www.w3.org/TR/2001/REC-SVG-20010904/DTD/svg10.dtd">
<svg version="1.0" xmlns="http://www.w3.org/2000/svg"
 width="512.000000pt" height="512.000000pt" viewBox="0 0 512.000000 512.000000"
 preserveAspectRatio="xMidYMid meet">
<metadata>
Created by potrace 1.14, written by Peter Selinger 2001-2017
</metadata>
<g transform="translate(0.000000,512.000000) scale(0.100000,-0.100000)"
fill="#000000" stroke="none">
<path d="M2509 5026 c-2 -2 -44 -7 -94 -10 -313 -24 -533 -144 -633 -345 -33
-68 -37 -83 -37 -155 l0 -81 -85 2 c-47 2 -140 4 -207 6 -68 2 -123 1 -123 -2
1 -3 46 -35 100 -71 55 -36 100 -67 100 -70 0 -8 -20 -19 -175 -100 -77 -40
-144 -76 -149 -80 -4 -5 6 -23 24 -42 66 -68 123 -168 155 -271 10 -31 16 -58
14 -60 -2 -1 -20 -10 -40 -20 -54 -28 -122 -100 -158 -166 -17 -32 -31 -63
-31 -69 0 -5 27 1 61 15 33 13 62 23 64 21 2 -2 -10 -30 -27 -63 -58 -117 -77
-189 -76 -299 1 -64 7 -121 18 -156 16 -54 16 -54 24 -25 4 17 10 41 12 55 11
57 25 100 34 100 12 0 12 -7 0 -50 -6 -19 -17 -75 -26 -125 -40 -235 -40 -232
2 -130 37 89 90 185 102 185 4 0 7 -51 6 -112 -1 -195 43 -328 163 -486 18
-24 33 -50 33 -57 0 -8 -22 -35 -49 -60 -30 -28 -61 -70 -77 -106 l-28 -60
-170 6 c-94 3 -216 8 -271 10 -55 3 -181 8 -280 11 -99 3 -205 8 -235 9 -126
7 -229 7 -240 0 -7 -4 -18 -22 -26 -40 -14 -34 -8 -76 21 -140 7 -16 41 -104
75 -195 64 -172 137 -360 171 -444 19 -45 101 -271 119 -326 4 -14 24 -69 44
-124 41 -112 42 -115 21 -112 -16 2 -136 -10 -170 -18 -96 -20 -139 -43 -129
-69 15 -40 167 -124 344 -190 120 -45 552 -181 607 -192 10 -1 57 -12 105 -24
48 -11 98 -23 110 -25 13 -3 84 -18 158 -35 163 -36 336 -72 370 -77 14 -2 39
-6 55 -9 143 -22 496 -22 614 0 9 1 43 6 76 9 33 4 92 14 130 22 39 8 81 17
95 20 48 10 147 36 318 85 159 46 341 92 402 103 14 2 45 9 70 16 25 7 52 14
60 15 44 9 607 144 631 151 14 4 12 10 -12 35 -33 36 -36 47 -11 55 62 21 173
68 207 89 l40 25 -35 -5 c-19 -3 -47 -7 -62 -9 -16 -3 -28 -3 -28 -2 0 2 24
19 53 37 85 56 133 74 226 85 96 11 107 27 76 115 -50 142 -247 336 -442 437
l-72 37 3 140 c7 240 -21 397 -100 561 -44 94 -115 183 -186 234 l-37 27 43
49 c84 97 150 209 174 296 10 38 9 249 -2 323 l-6 40 25 -50 c30 -62 68 -147
71 -160 1 -5 7 -21 12 -35 l11 -25 2 30 c5 85 4 148 -3 216 -5 41 -9 82 -9 92
0 9 -4 17 -9 17 -5 0 -7 6 -4 13 14 37 -95 319 -163 419 l-25 37 29 52 c35 66
110 148 168 187 l45 29 -73 74 c-39 41 -99 95 -132 120 -67 51 -195 129 -212
129 -6 0 -16 6 -22 13 -8 11 -1 19 32 38 23 13 54 30 68 39 14 8 49 28 77 44
29 16 51 31 49 33 -2 2 -100 6 -218 8 l-214 5 -20 28 c-43 60 -225 231 -298
281 -175 118 -402 208 -572 227 -22 3 -47 7 -55 10 -16 6 -355 15 -361 10z
m271 -1510 c-1 -30 -19 -66 -35 -66 -4 0 -5 24 -1 53 3 28 6 53 6 54 0 1 7 0
15 -3 9 -4 15 -19 15 -38z m88 10 c-3 -28 -7 -31 -40 -34 -32 -3 -38 0 -38 17
0 27 23 47 54 47 24 0 27 -3 24 -30z m-143 -187 c-4 -5 0 -9 7 -9 8 0 6 -5 -5
-11 -10 -6 -21 -8 -24 -5 -4 3 -1 6 5 6 6 0 9 9 7 20 -2 12 0 18 6 15 5 -4 7
-11 4 -16z m-123 -2264 c10 2 20 0 23 -5 3 -4 -8 -7 -25 -6 -16 1 -32 -3 -34
-8 -3 -7 -9 -5 -15 4 -10 14 -16 7 -12 -14 1 -5 -10 -1 -25 9 -23 15 -26 15
-21 2 3 -9 1 -19 -5 -23 -7 -4 -8 -3 -4 4 4 7 2 12 -3 12 -12 0 -15 -23 -4
-33 3 -4 14 0 24 9 13 12 19 12 25 3 5 -8 3 -10 -6 -4 -10 6 -12 4 -7 -8 4
-11 2 -14 -9 -10 -8 3 -14 2 -12 -3 5 -16 -57 -94 -71 -89 -8 3 -11 0 -8 -9 3
-7 -3 -40 -13 -72 -15 -49 -21 -58 -40 -58 -19 0 -27 11 -47 63 -23 63 -24 64
-6 107 10 24 22 44 26 44 5 0 5 5 2 10 -3 6 -1 10 5 10 7 0 10 7 6 15 -8 21
29 42 69 40 19 -2 35 2 35 7 0 6 6 5 15 -2 10 -8 15 -9 15 -2 0 7 17 10 45 7
33 -2 43 0 38 8 -5 9 -3 9 8 1 8 -6 22 -10 31 -9z m65 -12 c-4 -3 -2 -12 5
-20 18 -22 -6 -40 -29 -22 -16 13 -16 13 0 -10 12 -18 14 -28 5 -38 -8 -11
-14 -11 -27 -1 -10 8 -9 5 3 -10 19 -22 10 -32 -11 -11 -8 8 -13 7 -18 -2 -5
-7 -4 -10 1 -7 5 3 15 0 22 -8 12 -13 8 -18 -10 -15 -4 0 -5 -5 -2 -12 5 -15
-74 -110 -86 -102 -4 3 -13 -2 -20 -9 -6 -8 -24 -14 -40 -14 -27 1 -29 3 -26
37 1 20 8 37 14 37 7 1 13 2 15 4 1 1 11 3 21 5 10 2 22 8 25 13 3 4 14 11 24
15 10 4 16 11 13 16 -4 5 0 11 6 14 7 2 1 4 -15 4 -15 0 -30 -3 -33 -8 -3 -5
1 -6 9 -3 8 3 18 1 22 -5 3 -6 -1 -11 -9 -11 -8 0 -22 -7 -30 -16 -9 -8 -16
-12 -16 -8 0 3 -6 1 -14 -5 -10 -8 -16 -9 -21 -1 -8 13 3 32 15 25 4 -3 7 3 5
12 -4 27 76 99 120 107 20 4 39 14 42 22 5 13 8 12 26 -3 19 -18 20 -17 9 3
-10 19 -7 34 6 34 3 0 2 -3 -1 -7z"/>
<path d="M2379 1050 c-1 -3 -1 -9 0 -14 1 -5 -6 -6 -15 -2 -14 5 -15 4 -5 -8
9 -10 9 -16 1 -21 -8 -5 -7 -11 2 -22 11 -14 10 -15 -12 -9 -17 5 -20 4 -12
-2 8 -5 13 -12 13 -16 -3 -19 1 -19 16 -1 14 18 15 18 9 1 -3 -10 -1 -25 6
-33 10 -12 9 -14 -8 -11 -10 1 -24 10 -31 18 -6 8 -15 12 -19 7 -4 -4 -2 -7 5
-7 7 0 9 -4 6 -10 -3 -5 -3 -10 2 -11 10 -1 34 -6 53 -11 8 -3 11 -3 7 0 -4 2
-3 10 4 18 6 8 15 12 19 9 5 -3 22 12 39 34 26 33 29 40 16 51 -8 6 -20 8 -26
4 -9 -5 -7 -10 5 -19 15 -11 15 -13 1 -19 -10 -3 -13 -11 -9 -18 6 -9 3 -9 -9
1 -9 7 -14 18 -10 24 4 6 1 7 -7 2 -9 -6 -11 -4 -5 6 7 11 5 11 -10 -1 -15
-12 -17 -12 -10 -1 5 8 4 12 -1 8 -6 -3 -11 3 -11 14 -2 22 8 24 25 7 16 -16
16 4 0 22 -11 12 -10 12 4 2 13 -10 17 -10 22 0 3 7 3 2 0 -11 -7 -27 10 -22
25 8 9 16 5 17 -35 17 -24 -1 -45 -3 -45 -6z m-3 -49 c-3 -5 1 -14 9 -21 8 -7
15 -9 15 -5 0 5 9 0 20 -10 18 -17 19 -41 0 -30 -5 3 -11 1 -15 -5 -9 -15 -25
-2 -18 16 3 8 -2 23 -11 33 -9 10 -13 21 -9 24 9 10 15 9 9 -2z"/>
<path d="M2403 963 c4 -3 1 -13 -6 -22 -10 -14 -10 -14 4 -4 9 7 20 9 25 5 4
-4 2 1 -5 11 -7 9 -16 17 -19 17 -3 0 -2 -3 1 -7z"/>
<path d="M2429 997 c6 -8 7 -18 3 -22 -4 -5 -1 -5 6 -1 10 6 10 11 1 22 -6 8
-14 14 -16 14 -3 0 0 -6 6 -13z"/>
<path d="M2333 885 c0 -8 4 -15 9 -15 4 0 8 4 8 9 0 6 -4 12 -8 15 -5 3 -9 -1
-9 -9z"/>
<path d="M2365 881 c3 -6 -3 -14 -12 -20 -11 -6 -13 -11 -5 -11 7 0 11 -4 8
-8 -3 -5 1 -9 9 -9 8 0 15 4 15 9 0 4 -5 8 -12 8 -9 0 -9 3 0 12 15 15 15 28
1 28 -5 0 -8 -4 -4 -9z"/>
<path d="M2560 950 c-9 -6 -10 -10 -3 -10 6 0 15 5 18 10 8 12 4 12 -15 0z"/>
<path d="M2567 916 c-4 -10 -1 -13 9 -9 15 6 19 23 5 23 -5 0 -11 -7 -14 -14z"/>
<path d="M2539 868 c-4 -15 -6 -50 -3 -41 3 7 5 15 4 19 -1 4 4 11 12 15 10 7
10 9 1 9 -7 0 -13 -1 -14 -2z"/>
<path d="M2510 851 c0 -7 -4 -9 -10 -6 -6 4 -7 -1 -4 -12 5 -16 4 -16 -10 1
-9 11 -16 15 -16 9 0 -6 6 -16 14 -22 12 -10 17 -8 26 9 6 12 9 24 6 28 -3 3
-6 0 -6 -7z"/>
<path d="M2443 836 c0 -9 4 -16 9 -16 5 0 6 -5 2 -12 -4 -6 -3 -8 4 -4 5 3 13
0 15 -6 3 -7 6 -8 6 -3 0 6 -8 21 -18 34 -13 17 -18 19 -18 7z"/>
</g>
</svg>
